<svg width="393" height="192" viewBox="0 0 393 192" fill="none" xmlns="http://www.w3.org/2000/svg">
<g clip-path="url(#clip0_1_7)">
<path d="M0 -12H393V142C393 169.614 370.614 192 343 192H50C22.3858 192 0 169.614 0 142V-12Z" fill="#4DD8DD" fill-opacity="0.3"/>
<circle cx="359" cy="155" r="45" fill="#F5F8FE" fill-opacity="0.3"/>
<path d="M-0.5 -50C26.9499 -50 53.2755 -38.8849 72.6855 -19.0998C92.0956 0.685318 103 27.5197 103 55.5C103 83.4803 92.0956 110.315 72.6856 130.1C53.2755 149.885 26.9499 161 -0.499985 161L-0.5 55.5L-0.5 -50Z" fill="#1D89F9" fill-opacity="0.1"/>
<circle cx="158" cy="33" r="45" fill="#F5F8FE" fill-opacity="0.3"/>
<circle cx="262" cy="58" r="20" fill="#F5F8FE" fill-opacity="0.3"/>
<circle cx="35" cy="136" r="45" fill="#F5F8FE" fill-opacity="0.3"/>
</g>
<defs>
<clipPath id="clip0_1_7">
<path d="M0 -12H393V142C393 169.614 370.614 192 343 192H50C22.3858 192 0 169.614 0 142V-12Z" fill="white"/>
</clipPath>
</defs>
</svg>
