<svg width="26" height="26" viewBox="0 0 26 26" fill="none" xmlns="http://www.w3.org/2000/svg">
<path d="M12.3473 14.3073C11.4303 14.7075 10.4037 14.7813 9.43897 14.5162C8.47418 14.2511 7.62947 13.6632 7.04576 12.8505C6.47983 12.0485 6.22354 11.0686 6.32433 10.0922C6.42511 9.11574 6.87614 8.20886 7.59397 7.53932C8.32593 6.85503 9.26966 6.44125 10.2689 6.3665C11.2681 6.29176 12.2629 6.56053 13.0885 7.12831C13.9028 7.67838 14.4912 8.50394 14.7454 9.45318C14.9996 10.4024 14.9026 11.4115 14.4722 12.295" stroke="#1F3964" stroke-linecap="round" stroke-linejoin="round"/>
<path d="M12.406 14.3083L14.6847 16.5871H15.9656V17.8094H17.2162V19.0643L17.797 19.6451H19.6977V17.8155L14.3938 12.5117" stroke="#1F3964" stroke-linecap="round" stroke-linejoin="round"/>
<path d="M9.37091 10.5582C10.0761 10.5582 10.6478 9.98652 10.6478 9.28131C10.6478 8.57609 10.0761 8.00439 9.37091 8.00439C8.66569 8.00439 8.09399 8.57609 8.09399 9.28131C8.09399 9.98652 8.66569 10.5582 9.37091 10.5582Z" stroke="#1F3964" stroke-linecap="round" stroke-linejoin="round"/>
<path d="M13 25C19.6274 25 25 19.6274 25 13C25 6.37258 19.6274 1 13 1C6.37258 1 1 6.37258 1 13C1 19.6274 6.37258 25 13 25Z" stroke="#1F3964" stroke-linecap="round" stroke-linejoin="round"/>
</svg>
