<svg width="74" height="45" viewBox="0 0 74 45" fill="none" xmlns="http://www.w3.org/2000/svg">
<path d="M58 22.5C58 34.9264 47.9264 45 35.5 45C23.0736 45 13 34.9264 13 22.5C13 10.0736 23.0736 0 35.5 0C47.9264 0 58 10.0736 58 22.5Z" fill="#1D7FA9"/>
<path d="M35.4807 12C32.675 12.0051 30.1276 13.1107 28.2468 14.908L26.7347 13.3959C26.0945 12.7558 25 13.2092 25 14.1145V19.7903C25 20.3515 25.4549 20.8065 26.0161 20.8065H31.692C32.5973 20.8065 33.0507 19.712 32.4105 19.0718L30.6429 17.3042C31.9496 16.0806 33.6405 15.4029 35.4369 15.3874C39.3489 15.3536 42.6465 18.5195 42.6126 22.5613C42.5806 26.3955 39.472 29.6129 35.5 29.6129C33.7587 29.6129 32.113 28.9915 30.8161 27.8535C30.6153 27.6773 30.312 27.688 30.1231 27.8769L28.4439 29.5561C28.2376 29.7624 28.2478 30.0987 28.4643 30.2942C30.3261 31.976 32.7935 33 35.5 33C41.299 33 46 28.299 46 22.5001C46 16.7078 41.2731 11.9896 35.4807 12Z" fill="white"/>
</svg>
