<svg width="282" height="207" viewBox="0 0 282 207" fill="none" xmlns="http://www.w3.org/2000/svg">
<g filter="url(#filter0_d_60_602)">
<path d="M96.0872 17.2283L174.444 0.270752L181.042 191.891H101.036L96.0872 17.2283Z" fill="#4DD8DD" fill-opacity="0.7" shape-rendering="crispEdges"/>
</g>
<path d="M0 50.9984L88.1462 51.149L115.523 194.675L33.4658 205.166L0 50.9984Z" fill="#4DD8DD" fill-opacity="0.7"/>
<path d="M188.032 32.0247L270.755 62.4676L247.124 206.658L166.461 188.301L188.032 32.0247Z" fill="#4DD8DD" fill-opacity="0.7"/>
<path d="M131.576 110.421V66.1009L122.376 68.2609V60.4209L135.896 54.4209H142.216V110.421H131.576Z" fill="white"/>
<path d="M34.7732 121.287L33.9237 114.364C36.7772 111.344 39.5345 108.361 42.1955 105.415C44.9062 102.463 47.2725 99.5787 49.2945 96.7615C51.366 93.9382 52.9505 91.2502 54.0478 88.6976C55.1887 86.0892 55.619 83.6436 55.3389 81.3608C55.0771 79.2268 54.2502 77.414 52.8582 75.9224C51.5158 74.4247 49.5047 73.8403 46.8248 74.1691C44.0952 74.504 42.1453 75.65 40.9749 77.6071C39.8045 79.5642 39.3746 81.8082 39.6851 84.3392L30.4544 85.4718C30.0848 81.6383 30.5387 78.3586 31.8163 75.6327C33.0878 72.8572 34.9625 70.6878 37.4406 69.1243C39.9125 67.5113 42.7862 66.5038 46.0617 66.102C51.3718 65.4504 55.6706 66.4091 58.9579 68.9779C62.2887 71.4909 64.2373 75.0552 64.8035 79.6706C65.1567 82.549 64.8308 85.4352 63.8257 88.3291C62.8703 91.2169 61.4808 94.0573 59.6574 96.8501C57.8339 99.643 55.8185 102.308 53.6111 104.846C51.3976 107.334 49.2403 109.664 47.1392 111.836L69.6951 109.069L70.6541 116.885L34.7732 121.287Z" fill="white"/>
<path d="M216.995 115.581C213.607 114.929 210.652 113.749 208.13 112.041C205.617 110.284 203.766 107.993 202.579 105.167C201.392 102.342 201.114 99.0296 201.743 95.2301L211.023 97.0171C210.59 99.5306 210.993 101.798 212.234 103.819C213.532 105.8 215.63 107.07 218.527 107.628C221.276 108.157 223.534 107.803 225.3 106.564C227.066 105.326 228.171 103.553 228.616 101.245C229.136 98.5449 228.546 96.3183 226.847 94.5653C225.206 92.7727 222.864 91.5833 219.82 90.9971L215.99 90.2596L217.48 82.5267L221.383 83.2784C223.887 83.7606 226.087 83.5733 227.983 82.7164C229.88 81.8595 231.05 80.2773 231.494 77.9697C231.863 76.0549 231.518 74.4099 230.459 73.0348C229.458 71.6201 227.853 70.7 225.644 70.2745C223.238 69.8112 221.211 70.1591 219.562 71.3182C217.962 72.4867 216.89 74.0879 216.345 76.1216L207.14 74.3488C208.253 69.6241 210.621 66.1849 214.244 64.0311C217.916 61.8867 222.231 61.292 227.19 62.247C230.725 62.9278 233.572 64.1381 235.732 65.8779C237.951 67.5782 239.475 69.5775 240.306 71.876C241.185 74.1839 241.384 76.5899 240.901 79.0939C240.344 81.9907 239.061 84.2895 237.053 85.9905C235.103 87.6519 232.884 88.5993 230.395 88.8328C233.178 89.9799 235.261 91.8576 236.643 94.4659C238.034 97.0252 238.403 99.9986 237.751 103.386C237.202 106.234 236.014 108.704 234.185 110.796C232.357 112.888 229.98 114.39 227.054 115.304C224.178 116.226 220.825 116.319 216.995 115.581Z" fill="white"/>
<defs>
<filter id="filter0_d_60_602" x="96.0872" y="0.270752" width="92.9548" height="199.62" filterUnits="userSpaceOnUse" color-interpolation-filters="sRGB">
<feFlood flood-opacity="0" result="BackgroundImageFix"/>
<feColorMatrix in="SourceAlpha" type="matrix" values="0 0 0 0 0 0 0 0 0 0 0 0 0 0 0 0 0 0 127 0" result="hardAlpha"/>
<feOffset dx="4" dy="4"/>
<feGaussianBlur stdDeviation="2"/>
<feComposite in2="hardAlpha" operator="out"/>
<feColorMatrix type="matrix" values="0 0 0 0 0 0 0 0 0 0 0 0 0 0 0 0 0 0 0.25 0"/>
<feBlend mode="normal" in2="BackgroundImageFix" result="effect1_dropShadow_60_602"/>
<feBlend mode="normal" in="SourceGraphic" in2="effect1_dropShadow_60_602" result="shape"/>
</filter>
</defs>
</svg>
